<svg xmlns="http://www.w3.org/2000/svg" viewBox="0 0 1000 350"><title>Artboard 1</title><rect width="259.2" height="259.2" fill="#db4d3f"/><path d="M128.93,205.44H115.37V228.8H90.51V140.91h40.18q11.92,0,20.71,4A30.65,30.65,0,0,1,165,156.17a31,31,0,0,1,4.77,17.26,30.58,30.58,0,0,1-4.45,16.63,30.15,30.15,0,0,1-12.75,11.12l19,27.62H144.88Zm11.8-41.55q-3.89-3.39-11.55-3.39H115.37v25.73h13.81q7.66,0,11.55-3.32t3.89-9.48Q144.62,167.28,140.73,163.89Z" fill="#fff"/><path d="M254,209.59V228.8H183.42V140.91h68.93v19.21H208v14.82h39v18.58H208v16.07Z" fill="#fff"/><path d="M329.18,211.72H292l-6.9,17.08H259.75l38.8-87.89H323L362,228.8H336.09Zm-7.28-18.33-11.3-28.12-11.3,28.12Z" fill="#333"/><path d="M379.15,227.92a51,51,0,0,1-16.32-7L371,202.56a52.73,52.73,0,0,0,13.69,6.27A51.75,51.75,0,0,0,400,211.22q14.33,0,14.32-7.16,0-3.76-4.08-5.58a74.7,74.7,0,0,0-13.12-3.83,125,125,0,0,1-16.58-4.59,27.87,27.87,0,0,1-11.42-7.84q-4.77-5.4-4.77-14.57a25.22,25.22,0,0,1,4.39-14.5q4.39-6.47,13.12-10.23t21.41-3.77a75.37,75.37,0,0,1,17.07,1.95,52.42,52.42,0,0,1,14.82,5.71l-7.66,18.46q-12.56-6.78-24.36-6.78-7.41,0-10.79,2.2A6.58,6.58,0,0,0,389,166.4c0,2.34,1.33,4.1,4,5.27a72.42,72.42,0,0,0,12.93,3.64,122.27,122.27,0,0,1,16.64,4.58A28.82,28.82,0,0,1,434,187.68q4.83,5.34,4.83,14.5a24.79,24.79,0,0,1-4.39,14.31q-4.41,6.4-13.19,10.24t-21.34,3.83A81.17,81.17,0,0,1,379.15,227.92Z" fill="#333"/><path d="M469.49,224.65a44.93,44.93,0,0,1,0-79.6,56.11,56.11,0,0,1,50.09,0,44.94,44.94,0,0,1,0,79.6,56,56,0,0,1-50.09,0Zm37.1-17.82a22.67,22.67,0,0,0,8.53-8.86,29,29,0,0,0,0-26.24,22.71,22.71,0,0,0-8.53-8.85,24.71,24.71,0,0,0-24.11,0,22.66,22.66,0,0,0-8.54,8.85,29,29,0,0,0,0,26.24,22.62,22.62,0,0,0,8.54,8.86,24.78,24.78,0,0,0,24.11,0Z" fill="#333"/><path d="M640.05,140.91V228.8H619.58L580.79,182V228.8H556.43V140.91h20.46l38.8,46.83V140.91Z" fill="#333"/><path d="M716.51,211.72H679.34l-6.9,17.08H647.08l38.79-87.89h24.48l38.93,87.89H723.41Zm-7.29-18.33-11.29-28.12-11.3,28.12Z" fill="#333"/><path d="M835.65,191.19a21.58,21.58,0,0,1,4.27,13.5q0,11.55-9.29,17.83t-26.87,6.28H756.31V140.91h44.94q16.83,0,25.62,6.22a19.52,19.52,0,0,1,8.78,16.76,20.85,20.85,0,0,1-3.07,11.23,21.44,21.44,0,0,1-8.73,7.85A24.66,24.66,0,0,1,835.65,191.19Zm-54.74-32.33v16.95H798q12.56,0,12.55-8.53T798,158.86Zm33.9,43.07q0-8.91-13-8.91H780.91v17.82h20.85Q814.81,210.84,814.81,201.93Z" fill="#333"/><path d="M852.85,140.91h24.86v68.18h41.94V228.8h-66.8Z" fill="#333"/><path d="M1000,209.59V228.8H929.44V140.91h68.93v19.21H954.05v14.82h39v18.58h-39v16.07Z" fill="#333"/><path d="M480.27,324.29H466.71v23.35H441.85V259.76H482q11.93,0,20.72,3.95a32,32,0,0,1,13.87,45.2A30.16,30.16,0,0,1,503.88,320l19,27.62H496.22Zm11.8-41.56q-3.88-3.39-11.55-3.39H466.71v25.74h13.81q7.67,0,11.55-3.33t3.9-9.47Q496,286.13,492.07,282.73Z" fill="#333"/><path d="M605.32,328.43v19.21H534.76V259.76h68.93V279H559.37v14.81h39v18.58h-39v16.07Z" fill="#333"/><path d="M638,343.56a43.64,43.64,0,0,1-17.27-16.26,47.55,47.55,0,0,1,0-47.2A43.64,43.64,0,0,1,638,263.84,52,52,0,0,1,662.82,258a53.12,53.12,0,0,1,21.72,4.27,41.78,41.78,0,0,1,16.07,12.3L684.8,288.89q-8.55-10.31-20.72-10.3a25.57,25.57,0,0,0-12.74,3.14,21.74,21.74,0,0,0-8.67,8.85,29.57,29.57,0,0,0,0,26.24,21.74,21.74,0,0,0,8.67,8.85,25.47,25.47,0,0,0,12.74,3.14q12.18,0,20.72-10.29l15.81,14.31a41.59,41.59,0,0,1-16.07,12.3,53.12,53.12,0,0,1-21.72,4.27A51.9,51.9,0,0,1,638,343.56Z" fill="#333"/><path d="M711.66,259.76h24.86v87.88H711.66Z" fill="#333"/><path d="M815.12,263.71a31,31,0,0,1,0,57q-8.79,4-20.72,4H779.08v23H754.22V259.76H794.4Q806.33,259.76,815.12,263.71Zm-10.68,38q3.9-3.31,3.9-9.47t-3.9-9.55q-3.88-3.39-11.55-3.39H779.08v25.74h13.81Q800.56,305.08,804.44,301.75Z" fill="#333"/><path d="M916.06,328.43v19.21H845.5V259.76h68.93V279H870.11v14.81h39v18.58h-39v16.07Z" fill="#333"/><path d="M940,346.76a50.46,50.46,0,0,1-16.32-7l8.16-18.33a55.61,55.61,0,0,0,29,8.67q14.31,0,14.31-7.16,0-3.77-4.08-5.59A75.32,75.32,0,0,0,958,313.49a125.37,125.37,0,0,1-16.57-4.58A27.86,27.86,0,0,1,930,301.06q-4.77-5.38-4.77-14.56a25.2,25.2,0,0,1,4.4-14.5q4.39-6.47,13.12-10.23t21.4-3.77A75.39,75.39,0,0,1,981.22,260,52.24,52.24,0,0,1,996,265.66l-7.65,18.45q-12.57-6.78-24.36-6.78-7.41,0-10.8,2.2a6.59,6.59,0,0,0-3.39,5.71q0,3.52,4,5.28a73.29,73.29,0,0,0,12.93,3.64,121.23,121.23,0,0,1,16.64,4.58,28.69,28.69,0,0,1,11.42,7.79q4.83,5.33,4.84,14.5a24.72,24.72,0,0,1-4.4,14.31q-4.39,6.41-13.18,10.23t-21.35,3.83A81.1,81.1,0,0,1,940,346.76Z" fill="#333"/></svg>